<mxfile host="65bd71144e">
    <diagram id="ENEHNLF58q4yPq5NLobx" name="Page-1">
        <mxGraphModel dx="678" dy="432" grid="1" gridSize="10" guides="1" tooltips="1" connect="1" arrows="1" fold="1" page="1" pageScale="1" pageWidth="850" pageHeight="1100" math="0" shadow="0">
            <root>
                <mxCell id="0"/>
                <mxCell id="1" parent="0"/>
                <mxCell id="5" value="" style="edgeStyle=none;html=1;" parent="1" source="2" target="4" edge="1">
                    <mxGeometry relative="1" as="geometry"/>
                </mxCell>
                <mxCell id="2" value="Enter Credentials detail" style="rounded=0;whiteSpace=wrap;html=1;" parent="1" vertex="1">
                    <mxGeometry x="190" y="102" width="120" height="60" as="geometry"/>
                </mxCell>
                <mxCell id="17" value="" style="edgeStyle=none;html=1;fontSize=18;fontColor=#000000;" parent="1" source="3" target="16" edge="1">
                    <mxGeometry relative="1" as="geometry"/>
                </mxCell>
                <mxCell id="79" value="&lt;font style=&quot;font-size: 14px&quot;&gt;Invalid&lt;/font&gt;" style="edgeStyle=none;html=1;exitX=0.5;exitY=0;exitDx=0;exitDy=0;labelBackgroundColor=#FAFAFA;fontColor=#000000;" parent="1" source="3" edge="1">
                    <mxGeometry relative="1" as="geometry">
                        <mxPoint x="150" y="132" as="targetPoint"/>
                        <Array as="points">
                            <mxPoint x="570" y="47"/>
                            <mxPoint x="150" y="47"/>
                        </Array>
                    </mxGeometry>
                </mxCell>
                <mxCell id="3" value="Authenticate" style="rhombus;whiteSpace=wrap;html=1;" parent="1" vertex="1">
                    <mxGeometry x="530" y="92" width="80" height="80" as="geometry"/>
                </mxCell>
                <mxCell id="6" value="" style="edgeStyle=none;html=1;" parent="1" source="4" target="3" edge="1">
                    <mxGeometry relative="1" as="geometry"/>
                </mxCell>
                <mxCell id="4" value="Validate OTP" style="rounded=0;whiteSpace=wrap;html=1;" parent="1" vertex="1">
                    <mxGeometry x="370" y="102" width="120" height="60" as="geometry"/>
                </mxCell>
                <mxCell id="22" value="" style="edgeStyle=none;html=1;fontSize=18;fontColor=#000000;" parent="1" source="16" target="21" edge="1">
                    <mxGeometry relative="1" as="geometry"/>
                </mxCell>
                <mxCell id="16" value="Go to Dashboard" style="whiteSpace=wrap;html=1;" parent="1" vertex="1">
                    <mxGeometry x="700" y="102" width="120" height="60" as="geometry"/>
                </mxCell>
                <mxCell id="20" value="&lt;font style=&quot;font-size: 18px&quot;&gt;valid&lt;/font&gt;" style="edgeLabel;html=1;align=center;verticalAlign=middle;resizable=0;points=[];rotation=0;labelBackgroundColor=#FFFFFF;fontColor=#000000;" parent="1" vertex="1" connectable="0">
                    <mxGeometry x="600" y="42" as="geometry">
                        <mxPoint x="47" y="90" as="offset"/>
                    </mxGeometry>
                </mxCell>
                <mxCell id="24" value="&lt;span style=&quot;background-color: rgb(214 , 214 , 214)&quot;&gt;Yes&lt;/span&gt;" style="edgeStyle=none;html=1;fontSize=18;fontColor=#000000;" parent="1" source="21" target="23" edge="1">
                    <mxGeometry relative="1" as="geometry"/>
                </mxCell>
                <mxCell id="30" value="No" style="edgeStyle=none;html=1;labelBackgroundColor=#D6D6D6;fontSize=18;fontColor=#000000;" parent="1" source="21" edge="1">
                    <mxGeometry relative="1" as="geometry">
                        <mxPoint x="760" y="402" as="targetPoint"/>
                    </mxGeometry>
                </mxCell>
                <mxCell id="21" value="Ask Question" style="rhombus;whiteSpace=wrap;html=1;" parent="1" vertex="1">
                    <mxGeometry x="720" y="232" width="80" height="80" as="geometry"/>
                </mxCell>
                <mxCell id="26" value="No" style="edgeStyle=none;html=1;labelBackgroundColor=#D6D6D6;fontSize=18;fontColor=#000000;startArrow=none;exitX=0;exitY=0.5;exitDx=0;exitDy=0;entryX=0;entryY=0.5;entryDx=0;entryDy=0;entryPerimeter=0;" parent="1" source="27" target="78" edge="1">
                    <mxGeometry relative="1" as="geometry">
                        <Array as="points">
                            <mxPoint x="140" y="272"/>
                            <mxPoint x="140" y="1007"/>
                        </Array>
                        <mxPoint x="170" y="972" as="targetPoint"/>
                    </mxGeometry>
                </mxCell>
                <mxCell id="23" value="Ask A question" style="whiteSpace=wrap;html=1;" parent="1" vertex="1">
                    <mxGeometry x="425" y="242" width="120" height="60" as="geometry"/>
                </mxCell>
                <mxCell id="31" value="Yes" style="edgeStyle=none;html=1;labelBackgroundColor=#D6D6D6;fontSize=18;fontColor=#000000;exitX=0.5;exitY=1;exitDx=0;exitDy=0;" parent="1" source="27" edge="1">
                    <mxGeometry relative="1" as="geometry">
                        <mxPoint x="760" y="382" as="targetPoint"/>
                        <Array as="points">
                            <mxPoint x="310" y="382"/>
                        </Array>
                    </mxGeometry>
                </mxCell>
                <mxCell id="27" value="Review Question" style="rhombus;whiteSpace=wrap;html=1;" parent="1" vertex="1">
                    <mxGeometry x="270" y="232" width="80" height="80" as="geometry"/>
                </mxCell>
                <mxCell id="28" value="" style="edgeStyle=none;html=1;labelBackgroundColor=#D6D6D6;fontSize=18;fontColor=#000000;endArrow=none;" parent="1" source="23" target="27" edge="1">
                    <mxGeometry relative="1" as="geometry">
                        <mxPoint x="425" y="272" as="sourcePoint"/>
                        <mxPoint x="135" y="272" as="targetPoint"/>
                    </mxGeometry>
                </mxCell>
                <mxCell id="37" value="No" style="edgeStyle=none;html=1;labelBackgroundColor=#D6D6D6;fontSize=18;fontColor=#000000;" parent="1" source="32" target="36" edge="1">
                    <mxGeometry relative="1" as="geometry"/>
                </mxCell>
                <mxCell id="44" value="Yes" style="edgeStyle=none;html=1;labelBackgroundColor=#D6D6D6;fontSize=18;fontColor=#000000;" parent="1" source="32" target="43" edge="1">
                    <mxGeometry relative="1" as="geometry"/>
                </mxCell>
                <mxCell id="32" value="Review Others Question" style="rhombus;whiteSpace=wrap;html=1;" parent="1" vertex="1">
                    <mxGeometry x="720" y="402" width="80" height="80" as="geometry"/>
                </mxCell>
                <mxCell id="39" value="No" style="edgeStyle=none;html=1;labelBackgroundColor=#D6D6D6;fontSize=18;fontColor=#000000;" parent="1" source="36" target="38" edge="1">
                    <mxGeometry relative="1" as="geometry">
                        <Array as="points">
                            <mxPoint x="760" y="682"/>
                        </Array>
                    </mxGeometry>
                </mxCell>
                <mxCell id="62" value="Yes" style="edgeStyle=none;html=1;labelBackgroundColor=#D6D6D6;fontSize=18;fontColor=#000000;exitX=0;exitY=0.5;exitDx=0;exitDy=0;entryX=0.5;entryY=0;entryDx=0;entryDy=0;" parent="1" source="36" target="61" edge="1">
                    <mxGeometry relative="1" as="geometry">
                        <mxPoint x="710" y="607" as="sourcePoint"/>
                        <Array as="points">
                            <mxPoint x="620" y="602"/>
                        </Array>
                        <mxPoint x="710" y="677" as="targetPoint"/>
                    </mxGeometry>
                </mxCell>
                <mxCell id="36" value="Check Weather" style="rhombus;whiteSpace=wrap;html=1;" parent="1" vertex="1">
                    <mxGeometry x="720" y="562" width="80" height="80" as="geometry"/>
                </mxCell>
                <mxCell id="41" value="No" style="edgeStyle=none;html=1;labelBackgroundColor=#D6D6D6;fontSize=18;fontColor=#000000;entryX=1;entryY=0.5;entryDx=0;entryDy=0;entryPerimeter=0;" parent="1" source="38" target="78" edge="1">
                    <mxGeometry x="-0.7263" relative="1" as="geometry">
                        <mxPoint x="165" y="1032" as="targetPoint"/>
                        <Array as="points">
                            <mxPoint x="760" y="1007"/>
                        </Array>
                        <mxPoint as="offset"/>
                    </mxGeometry>
                </mxCell>
                <mxCell id="70" value="Yes" style="edgeStyle=none;html=1;labelBackgroundColor=#D6D6D6;fontSize=18;fontColor=#000000;" parent="1" source="38" target="69" edge="1">
                    <mxGeometry relative="1" as="geometry"/>
                </mxCell>
                <mxCell id="38" value="Check price" style="rhombus;whiteSpace=wrap;html=1;" parent="1" vertex="1">
                    <mxGeometry x="720" y="722" width="80" height="80" as="geometry"/>
                </mxCell>
                <mxCell id="46" value="" style="edgeStyle=none;html=1;labelBackgroundColor=#D6D6D6;fontSize=18;fontColor=#000000;" parent="1" source="43" target="45" edge="1">
                    <mxGeometry relative="1" as="geometry"/>
                </mxCell>
                <mxCell id="52" value="No" style="edgeStyle=none;html=1;labelBackgroundColor=#D6D6D6;fontSize=18;fontColor=#000000;exitX=0.5;exitY=1;exitDx=0;exitDy=0;entryX=1;entryY=0.5;entryDx=0;entryDy=0;" parent="1" source="43" target="51" edge="1">
                    <mxGeometry x="-0.6" relative="1" as="geometry">
                        <mxPoint x="600" y="567" as="targetPoint"/>
                        <Array as="points">
                            <mxPoint x="600" y="532"/>
                        </Array>
                        <mxPoint as="offset"/>
                    </mxGeometry>
                </mxCell>
                <mxCell id="43" value="Give Feedback" style="rhombus;whiteSpace=wrap;html=1;" parent="1" vertex="1">
                    <mxGeometry x="560" y="402" width="80" height="80" as="geometry"/>
                </mxCell>
                <mxCell id="45" value="Give other answer" style="whiteSpace=wrap;html=1;" parent="1" vertex="1">
                    <mxGeometry x="380" y="412" width="120" height="60" as="geometry"/>
                </mxCell>
                <mxCell id="54" value="Yes" style="edgeStyle=none;html=1;labelBackgroundColor=#D6D6D6;fontSize=18;fontColor=#000000;" parent="1" source="51" target="53" edge="1">
                    <mxGeometry relative="1" as="geometry"/>
                </mxCell>
                <mxCell id="84" value="No" style="edgeStyle=none;html=1;labelBackgroundColor=#FAFAFA;fontSize=18;fontColor=#000000;entryX=0;entryY=0.5;entryDx=0;entryDy=0;entryPerimeter=0;" parent="1" source="51" target="78" edge="1">
                    <mxGeometry x="-0.8462" relative="1" as="geometry">
                        <mxPoint x="210" y="977" as="targetPoint"/>
                        <Array as="points">
                            <mxPoint x="485" y="587"/>
                            <mxPoint x="210" y="587"/>
                            <mxPoint x="210" y="1007"/>
                        </Array>
                        <mxPoint as="offset"/>
                    </mxGeometry>
                </mxCell>
                <mxCell id="51" value="Read others&lt;br&gt;question" style="rhombus;whiteSpace=wrap;html=1;" parent="1" vertex="1">
                    <mxGeometry x="445" y="492" width="80" height="80" as="geometry"/>
                </mxCell>
                <mxCell id="56" value="" style="edgeStyle=none;html=1;labelBackgroundColor=#D6D6D6;fontSize=18;fontColor=#000000;entryX=0;entryY=0.5;entryDx=0;entryDy=0;entryPerimeter=0;" parent="1" source="53" target="78" edge="1">
                    <mxGeometry relative="1" as="geometry">
                        <mxPoint x="400" y="1013.3333740234375" as="targetPoint"/>
                        <Array as="points">
                            <mxPoint x="180" y="532"/>
                            <mxPoint x="180" y="1007"/>
                        </Array>
                    </mxGeometry>
                </mxCell>
                <mxCell id="53" value="Read" style="whiteSpace=wrap;html=1;" parent="1" vertex="1">
                    <mxGeometry x="220" y="502" width="120" height="60" as="geometry"/>
                </mxCell>
                <mxCell id="68" value="" style="edgeStyle=none;html=1;labelBackgroundColor=#D6D6D6;fontSize=18;fontColor=#000000;exitX=0.5;exitY=1;exitDx=0;exitDy=0;entryX=0.5;entryY=0.5;entryDx=0;entryDy=-15;entryPerimeter=0;" parent="1" source="59" target="78" edge="1">
                    <mxGeometry relative="1" as="geometry">
                        <mxPoint x="450" y="982" as="targetPoint"/>
                        <Array as="points">
                            <mxPoint x="290" y="902"/>
                            <mxPoint x="450" y="902"/>
                        </Array>
                    </mxGeometry>
                </mxCell>
                <mxCell id="59" value="Display" style="whiteSpace=wrap;html=1;" parent="1" vertex="1">
                    <mxGeometry x="230" y="632" width="120" height="60" as="geometry"/>
                </mxCell>
                <mxCell id="64" value="Yes" style="edgeStyle=none;html=1;exitX=0;exitY=0.5;exitDx=0;exitDy=0;entryX=1;entryY=0.5;entryDx=0;entryDy=0;labelBackgroundColor=#D6D6D6;fontSize=18;fontColor=#000000;startArrow=none;" parent="1" source="86" target="59" edge="1">
                    <mxGeometry relative="1" as="geometry">
                        <mxPoint x="490" y="662" as="targetPoint"/>
                    </mxGeometry>
                </mxCell>
                <mxCell id="87" value="" style="edgeStyle=none;html=1;" edge="1" parent="1" source="61" target="86">
                    <mxGeometry relative="1" as="geometry"/>
                </mxCell>
                <mxCell id="61" value="input location" style="whiteSpace=wrap;html=1;" parent="1" vertex="1">
                    <mxGeometry x="570" y="632" width="100" height="60" as="geometry"/>
                </mxCell>
                <mxCell id="72" value="" style="edgeStyle=none;html=1;labelBackgroundColor=#D6D6D6;fontSize=18;fontColor=#000000;exitX=0.5;exitY=1;exitDx=0;exitDy=0;entryX=0.5;entryY=0.5;entryDx=0;entryDy=-15;entryPerimeter=0;" parent="1" source="69" target="78" edge="1">
                    <mxGeometry relative="1" as="geometry">
                        <mxPoint x="420" y="972" as="targetPoint"/>
                        <Array as="points">
                            <mxPoint x="560" y="902"/>
                            <mxPoint x="450" y="902"/>
                        </Array>
                    </mxGeometry>
                </mxCell>
                <mxCell id="69" value="Display Price" style="whiteSpace=wrap;html=1;" parent="1" vertex="1">
                    <mxGeometry x="500" y="732" width="120" height="60" as="geometry"/>
                </mxCell>
                <mxCell id="77" style="edgeStyle=none;html=1;exitX=1;exitY=0.5;exitDx=0;exitDy=0;exitPerimeter=0;entryX=0;entryY=0.5;entryDx=0;entryDy=0;" parent="1" target="2" edge="1">
                    <mxGeometry relative="1" as="geometry">
                        <Array as="points">
                            <mxPoint x="110" y="132"/>
                        </Array>
                        <mxPoint x="150" y="132" as="sourcePoint"/>
                    </mxGeometry>
                </mxCell>
                <mxCell id="76" value="Start" style="html=1;dashed=0;whitespace=wrap;shape=mxgraph.dfd.start" parent="1" vertex="1">
                    <mxGeometry x="30" y="117" width="90" height="30" as="geometry"/>
                </mxCell>
                <mxCell id="78" value="End" style="html=1;dashed=0;whitespace=wrap;shape=mxgraph.dfd.start" parent="1" vertex="1">
                    <mxGeometry x="410" y="992" width="80" height="30" as="geometry"/>
                </mxCell>
                <mxCell id="85" value="&lt;b&gt;&lt;font style=&quot;font-size: 19px&quot;&gt;&lt;u&gt;Farmer side flow chart&lt;/u&gt;&lt;/font&gt;&lt;/b&gt;" style="strokeWidth=1;shadow=0;dashed=0;align=center;html=1;shape=mxgraph.mockup.text.textBox;fontColor=#666666;align=left;fontSize=17;spacingLeft=4;spacingTop=-3;strokeColor=none;mainText=;fillColor=none;" vertex="1" parent="1">
                    <mxGeometry x="340" y="1030" width="195" height="40" as="geometry"/>
                </mxCell>
                <mxCell id="89" value="No" style="edgeStyle=none;html=1;exitX=0.5;exitY=1;exitDx=0;exitDy=0;entryX=0.5;entryY=0.5;entryDx=0;entryDy=-15;entryPerimeter=0;labelBackgroundColor=#FFFFFF;fontColor=#000000;" edge="1" parent="1" source="86" target="78">
                    <mxGeometry relative="1" as="geometry"/>
                </mxCell>
                <mxCell id="86" value="Location avaiable" style="rhombus;whiteSpace=wrap;html=1;" vertex="1" parent="1">
                    <mxGeometry x="410" y="622" width="80" height="80" as="geometry"/>
                </mxCell>
                <mxCell id="88" value="" style="edgeStyle=none;html=1;exitX=0;exitY=0.5;exitDx=0;exitDy=0;entryX=1;entryY=0.5;entryDx=0;entryDy=0;labelBackgroundColor=#D6D6D6;fontSize=18;fontColor=#000000;endArrow=none;" edge="1" parent="1" source="61" target="86">
                    <mxGeometry relative="1" as="geometry">
                        <mxPoint x="380" y="662" as="targetPoint"/>
                        <mxPoint x="570" y="662" as="sourcePoint"/>
                    </mxGeometry>
                </mxCell>
            </root>
        </mxGraphModel>
    </diagram>
</mxfile>